<svg width="13" height="9" viewBox="0 0 13 9" fill="none" xmlns="http://www.w3.org/2000/svg">
<path d="M12.265 0.764984L4.26498 8.76499C4.19467 8.83521 4.09936 8.87465 3.99998 8.87465C3.90061 8.87465 3.8053 8.83521 3.73498 8.76499L0.234984 5.26499C0.168744 5.1939 0.132683 5.09987 0.134397 5.00272C0.136111 4.90557 0.175467 4.81288 0.244173 4.74417C0.31288 4.67547 0.405572 4.63611 0.502723 4.6344C0.599874 4.63268 0.693897 4.66874 0.764984 4.73498L3.99998 7.96936L11.735 0.234985C11.8061 0.168745 11.9001 0.132683 11.9972 0.134397C12.0944 0.136111 12.1871 0.175467 12.2558 0.244174C12.3245 0.31288 12.3639 0.405573 12.3656 0.502723C12.3673 0.599874 12.3312 0.693897 12.265 0.764984Z" fill="white"/>
</svg>
